<svg id="logo" xmlns="http://www.w3.org/2000/svg" xmlns:xlink="http://www.w3.org/1999/xlink" viewBox="0 0 600 300"><defs><style>.cls-1{fill:url(#linear-gradient);}.cls-2{fill:url(#linear-gradient-2);}.cls-3{fill:url(#linear-gradient-3);}.cls-4{fill:#fff;}.cls-5{fill:url(#linear-gradient-4);}.cls-6{fill:#fff;}</style><linearGradient id="linear-gradient" x1="107.01" y1="198.47" x2="192.4" y2="96.71" gradientUnits="userSpaceOnUse"><stop offset="0" stop-color="#003595"></stop><stop offset="0.24" stop-color="#0855af"></stop><stop offset="0.57" stop-color="#127dce"></stop><stop offset="0.84" stop-color="#1895e1"></stop><stop offset="1" stop-color="#1a9ee8"></stop></linearGradient><linearGradient id="linear-gradient-2" x1="87.2" y1="109.84" x2="87.2" y2="150.79" gradientUnits="userSpaceOnUse"><stop offset="0" stop-color="#df0b37"></stop><stop offset="0.24" stop-color="#e10f3b"></stop><stop offset="0.48" stop-color="#e71a48"></stop><stop offset="0.73" stop-color="#f02c5c"></stop><stop offset="0.98" stop-color="#fe4579"></stop><stop offset="1" stop-color="#ff487c"></stop></linearGradient><linearGradient id="linear-gradient-3" x1="226.82" y1="150.79" x2="226.82" y2="109.84" xlink:href="#linear-gradient-2"></linearGradient><linearGradient id="linear-gradient-4" x1="411.02" y1="103.4" x2="423.46" y2="103.4" xlink:href="#linear-gradient-2"></linearGradient></defs><title>Guilu-brand_final</title><g id="logo-2" data-name="logo"><g id="simbolo"><path class="cls-1" d="M210.38,117.46a7.91,7.91,0,0,0-1.56-4.73,1.33,1.33,0,0,0-.14-.19,7.61,7.61,0,0,0-6-2.85h-91a8,8,0,0,0-6.27,3l-.16.21a8.28,8.28,0,0,0-1.64,5v80.8a4.17,4.17,0,0,0,7.81,2L126.73,170a4,4,0,0,1,7.1,0l12.25,24.49a12.23,12.23,0,0,0,21.88,0l21.62-43.24a4,4,0,0,1,7.1,0l6,12a4.08,4.08,0,0,0,7.73-1.82Z"></path><path class="cls-2" d="M87.2,109.84A8.19,8.19,0,0,0,79,118v24.56a8.19,8.19,0,1,0,16.38,0V118A8.19,8.19,0,0,0,87.2,109.84Zm0,36.86a4.09,4.09,0,1,1,4.09-4.09A4.09,4.09,0,0,1,87.18,146.7Z"></path><path class="cls-3" d="M226.82,109.84a8.19,8.19,0,0,0-8.19,8.19v24.56a8.19,8.19,0,1,0,16.38,0V118A8.19,8.19,0,0,0,226.82,109.84Zm.08,12.1a4.09,4.09,0,1,1,4.09-4.09A4.09,4.09,0,0,1,226.9,121.94Z"></path></g><g id="type"><path class="cls-4" d="M393.73,173.06a13.39,13.39,0,0,1-11.12,13.2l-.14,0a96.68,96.68,0,0,1-16.19,1.2,34.38,34.38,0,0,1-13.45-2.33,21.66,21.66,0,0,1-8.8-6.59,26.76,26.76,0,0,1-4.79-10.06,52.35,52.35,0,0,1-1.47-12.86V122.93a6.21,6.21,0,0,1,6.2-6.2h0a6.2,6.2,0,0,1,6.19,6.2v30q0,12.66,4,18.12t13.46,5.47c1.33,0,2.71-.05,4.13-.14s2.75-.2,4-.33,2.38-.27,3.4-.4a9.61,9.61,0,0,0,2.2-.47V122.93a6.2,6.2,0,0,1,6.2-6.2h0a6.2,6.2,0,0,1,6.19,6.2Z"></path><path class="cls-4" d="M417.24,188h0a6.2,6.2,0,0,1-6.2-6.2V124.93a6.2,6.2,0,0,1,6.2-6.2h0a6.2,6.2,0,0,1,6.19,6.2v56.89A6.2,6.2,0,0,1,417.24,188Z"></path><path class="cls-4" d="M461.37,183.29a5.61,5.61,0,0,1-6.35,4.62q-7.2-1-10.75-4.49-4.8-4.66-4.8-14.52V91a6.19,6.19,0,0,1,5.15-6.1h0a6.19,6.19,0,0,1,7.24,6.1V166.9a19.81,19.81,0,0,0,.54,5.06,6.91,6.91,0,0,0,1.73,3.2,7.42,7.42,0,0,0,3.2,1.8l.08,0a5.63,5.63,0,0,1,4,6.31Z"></path><path class="cls-4" d="M524.26,173.06a13.39,13.39,0,0,1-11.11,13.2l-.14,0a96.76,96.76,0,0,1-16.19,1.2,34.4,34.4,0,0,1-13.46-2.33,21.63,21.63,0,0,1-8.79-6.59,26.77,26.77,0,0,1-4.8-10.06,52.35,52.35,0,0,1-1.47-12.86V122.93a6.21,6.21,0,0,1,6.2-6.2h0a6.2,6.2,0,0,1,6.19,6.2v30q0,12.66,4,18.12t13.46,5.47c1.33,0,2.71-.05,4.13-.14s2.75-.2,4-.33,2.37-.27,3.39-.4a9.61,9.61,0,0,0,2.2-.47V122.93a6.21,6.21,0,0,1,6.2-6.2h0a6.2,6.2,0,0,1,6.19,6.2Z"></path><circle class="cls-5" cx="417.24" cy="103.4" r="6.22"></circle><path class="cls-4" d="M313,124c-1.19-.46-2.47-.9-3.85-1.29a37.47,37.47,0,0,0-10.09-1.34q-11.53,0-17.62,7.16t-6.09,19.9a39.62,39.62,0,0,0,1.45,11.05,24.42,24.42,0,0,0,4.31,8.57,19.78,19.78,0,0,0,7.12,5.55,23.28,23.28,0,0,0,10,2,60.44,60.44,0,0,0,6.15-.27c.46,0,.9-.1,1.31-.15a3.21,3.21,0,0,0,2.78-3.19V154.87a7,7,0,0,1,6.62-7.11,6.79,6.79,0,0,1,7,6.79v20.08A11.59,11.59,0,0,1,312.69,186l-.11,0a82,82,0,0,1-15.42,1.3,40.72,40.72,0,0,1-14.77-2.59A30.72,30.72,0,0,1,271,177.19,34.3,34.3,0,0,1,263.74,165a49.25,49.25,0,0,1-2.58-16.6A45,45,0,0,1,264,131.8a36,36,0,0,1,7.82-12.23,32.69,32.69,0,0,1,11.64-7.6,39,39,0,0,1,14.23-2.59,54.08,54.08,0,0,1,9.22.7,63.74,63.74,0,0,1,6.95,1.56,32.5,32.5,0,0,1,3.87,1.39c.33.15.64.29.93.45l.07,0a6,6,0,0,1,2,1.57l.33.47a6,6,0,0,1-3.31,9,5.93,5.93,0,0,1-1.75.26,5.82,5.82,0,0,1-1.62-.23Z"></path></g><path class="cls-6" d="M400.17,213.39c-.11-.33-.22-.65-.35-1s-.23-.65-.34-1H396c-.11.33-.22.66-.34,1s-.23.64-.34,1h-1.57c.31-.89.6-1.71.88-2.46s.56-1.46.82-2.13.54-1.32.8-1.92.54-1.21.82-1.8h1.44c.28.59.55,1.19.82,1.8s.53,1.24.79,1.92.55,1.38.83,2.13.58,1.57.9,2.46Zm-2.45-6.71c-.18.43-.39.94-.63,1.55s-.48,1.27-.74,2h2.74c-.26-.71-.51-1.37-.75-2S397.9,207.09,397.72,206.68Z"></path><path class="cls-6" d="M405.5,205.46l1.45-.24v1.9h2.24v1.21H407v2.55a1.83,1.83,0,0,0,.24,1.08.94.94,0,0,0,.82.33,2.48,2.48,0,0,0,.7-.09,3.28,3.28,0,0,0,.49-.15l.24,1.15a5.05,5.05,0,0,1-.66.22,3.45,3.45,0,0,1-1,.12,3,3,0,0,1-1.12-.18,1.7,1.7,0,0,1-.72-.53,2.06,2.06,0,0,1-.37-.82,5.35,5.35,0,0,1-.11-1.11Z"></path><path class="cls-6" d="M410.13,210.28a4,4,0,0,1,.25-1.45,3.12,3.12,0,0,1,.65-1,2.86,2.86,0,0,1,2-.83,2.6,2.6,0,0,1,2,.8,3.47,3.47,0,0,1,.73,2.41,2.44,2.44,0,0,1,0,.26,2,2,0,0,1,0,.27h-4.14a1.66,1.66,0,0,0,.54,1.18,2,2,0,0,0,1.37.41,4.19,4.19,0,0,0,1-.1,4,4,0,0,0,.69-.2l.19,1.19a2,2,0,0,1-.33.12,2.8,2.8,0,0,1-.48.12,4.71,4.71,0,0,1-.58.09,4.49,4.49,0,0,1-.64,0,3.74,3.74,0,0,1-1.44-.25,2.69,2.69,0,0,1-1-.68,2.75,2.75,0,0,1-.58-1A4.19,4.19,0,0,1,410.13,210.28Zm4.22-.64a1.79,1.79,0,0,0-.09-.57,1.39,1.39,0,0,0-.24-.47,1.11,1.11,0,0,0-.4-.31,1.22,1.22,0,0,0-.56-.12,1.25,1.25,0,0,0-.59.13,1.23,1.23,0,0,0-.42.33,1.29,1.29,0,0,0-.27.47,1.94,1.94,0,0,0-.13.54Z"></path><path class="cls-6" d="M417,210.26a3.94,3.94,0,0,1,.21-1.3,3,3,0,0,1,.62-1.05,2.79,2.79,0,0,1,1-.7,3.13,3.13,0,0,1,1.29-.25,4.45,4.45,0,0,1,1.68.32l-.31,1.19a3.83,3.83,0,0,0-.57-.18,3,3,0,0,0-.68-.07,1.6,1.6,0,0,0-1.29.53,2.29,2.29,0,0,0-.45,1.51,2.37,2.37,0,0,0,.42,1.48,1.68,1.68,0,0,0,1.42.55,4.4,4.4,0,0,0,.73-.07,4,4,0,0,0,.63-.18l.2,1.2a2.85,2.85,0,0,1-.73.21,4.65,4.65,0,0,1-1,.1,3.57,3.57,0,0,1-1.4-.25,2.65,2.65,0,0,1-1-.68,2.69,2.69,0,0,1-.58-1.05A4.23,4.23,0,0,1,417,210.26Z"></path><path class="cls-6" d="M423,213.39v-9.07l1.45-.24v3.11A3.21,3.21,0,0,1,425,207a3.36,3.36,0,0,1,.63-.06,3.23,3.23,0,0,1,1.25.21,2,2,0,0,1,.8.59,2.4,2.4,0,0,1,.43.91,5.26,5.26,0,0,1,.12,1.17v3.53h-1.45v-3.3a4.33,4.33,0,0,0-.07-.86,1.47,1.47,0,0,0-.21-.57.92.92,0,0,0-.4-.33,1.89,1.89,0,0,0-.63-.1,3,3,0,0,0-.59.06l-.44.11v5Z"></path><path class="cls-6" d="M438.43,210.26a4.25,4.25,0,0,1-.19,1.32,3,3,0,0,1-.53,1,2.31,2.31,0,0,1-.87.67,2.8,2.8,0,0,1-1.18.24,3,3,0,0,1-.82-.1,4.31,4.31,0,0,1-.61-.24v2.43h-1.45v-8.29c.29-.08.66-.15,1.09-.23a8.54,8.54,0,0,1,1.37-.11,3.71,3.71,0,0,1,1.33.23,2.73,2.73,0,0,1,1,.66,2.85,2.85,0,0,1,.64,1A4.13,4.13,0,0,1,438.43,210.26Zm-1.49,0a2.36,2.36,0,0,0-.44-1.51,1.71,1.71,0,0,0-1.41-.54l-.42,0a2.14,2.14,0,0,0-.44.08v3.59a2.44,2.44,0,0,0,.51.24,1.91,1.91,0,0,0,.68.12,1.29,1.29,0,0,0,1.15-.54A2.53,2.53,0,0,0,436.94,210.28Z"></path><path class="cls-6" d="M439.58,210.28a3.83,3.83,0,0,1,.25-1.45,3.12,3.12,0,0,1,.65-1,2.7,2.7,0,0,1,.94-.62,2.88,2.88,0,0,1,1.08-.21,2.6,2.6,0,0,1,2,.8,3.52,3.52,0,0,1,.73,2.41c0,.08,0,.16,0,.26s0,.19,0,.27h-4.14a1.66,1.66,0,0,0,.54,1.18,2,2,0,0,0,1.37.41,4.25,4.25,0,0,0,1-.1,3.57,3.57,0,0,0,.68-.2l.2,1.19a2,2,0,0,1-.33.12,2.8,2.8,0,0,1-.48.12,5,5,0,0,1-.58.09,4.58,4.58,0,0,1-.64,0,3.74,3.74,0,0,1-1.44-.25,2.61,2.61,0,0,1-1-.68,2.92,2.92,0,0,1-.59-1A4.19,4.19,0,0,1,439.58,210.28Zm4.21-.64a2.12,2.12,0,0,0-.08-.57,1.41,1.41,0,0,0-.25-.47,1.16,1.16,0,0,0-.39-.31,1.39,1.39,0,0,0-1.15,0,1.14,1.14,0,0,0-.42.33,1.47,1.47,0,0,0-.28.47,3,3,0,0,0-.13.54Z"></path><path class="cls-6" d="M452.46,210.25a4.06,4.06,0,0,1-.22,1.35,3,3,0,0,1-.61,1.05,2.73,2.73,0,0,1-1,.67,3.25,3.25,0,0,1-2.45,0,2.78,2.78,0,0,1-1-.67,3.21,3.21,0,0,1-.62-1.05,4.25,4.25,0,0,1,0-2.7,3.12,3.12,0,0,1,.63-1,2.78,2.78,0,0,1,1-.67,3.18,3.18,0,0,1,1.21-.23,3.23,3.23,0,0,1,1.22.23,2.82,2.82,0,0,1,1,.67,3.07,3.07,0,0,1,.61,1A3.82,3.82,0,0,1,452.46,210.25Zm-1.49,0a2.48,2.48,0,0,0-.4-1.48,1.32,1.32,0,0,0-1.13-.55,1.3,1.3,0,0,0-1.12.55,2.41,2.41,0,0,0-.4,1.48,2.49,2.49,0,0,0,.4,1.5,1.3,1.3,0,0,0,1.12.55,1.32,1.32,0,0,0,1.13-.55A2.57,2.57,0,0,0,451,210.25Z"></path><path class="cls-6" d="M459.61,210.26a4.25,4.25,0,0,1-.19,1.32,3,3,0,0,1-.53,1,2.31,2.31,0,0,1-.87.67,2.8,2.8,0,0,1-1.18.24,3,3,0,0,1-.82-.1,4.31,4.31,0,0,1-.61-.24v2.43H454v-8.29c.29-.08.66-.15,1.09-.23a8.54,8.54,0,0,1,1.37-.11,3.71,3.71,0,0,1,1.33.23,2.73,2.73,0,0,1,1,.66,2.85,2.85,0,0,1,.64,1A4.13,4.13,0,0,1,459.61,210.26Zm-1.49,0a2.36,2.36,0,0,0-.44-1.51,1.71,1.71,0,0,0-1.41-.54l-.42,0a2.14,2.14,0,0,0-.44.08v3.59a2.44,2.44,0,0,0,.51.24,1.91,1.91,0,0,0,.68.12,1.29,1.29,0,0,0,1.15-.54A2.53,2.53,0,0,0,458.12,210.28Z"></path><path class="cls-6" d="M463.29,213.51a3.91,3.91,0,0,1-1.07-.14,1.71,1.71,0,0,1-.68-.38,1.24,1.24,0,0,1-.35-.61,3.05,3.05,0,0,1-.11-.84v-7.22l1.46-.24v7.19a1.89,1.89,0,0,0,0,.44.81.81,0,0,0,.15.31.67.67,0,0,0,.29.19,2.35,2.35,0,0,0,.48.1Z"></path><path class="cls-6" d="M464.32,210.28a4,4,0,0,1,.25-1.45,3.12,3.12,0,0,1,.65-1,2.86,2.86,0,0,1,2-.83,2.6,2.6,0,0,1,2,.8,3.47,3.47,0,0,1,.73,2.41,2.44,2.44,0,0,1,0,.26,2,2,0,0,1,0,.27h-4.14a1.66,1.66,0,0,0,.54,1.18,2,2,0,0,0,1.37.41,4.19,4.19,0,0,0,1-.1,4,4,0,0,0,.69-.2l.19,1.19a2,2,0,0,1-.33.12,2.8,2.8,0,0,1-.48.12,4.71,4.71,0,0,1-.58.09,4.49,4.49,0,0,1-.64,0,3.74,3.74,0,0,1-1.44-.25,2.69,2.69,0,0,1-1-.68,2.75,2.75,0,0,1-.58-1A4.19,4.19,0,0,1,464.32,210.28Zm4.22-.64a1.79,1.79,0,0,0-.09-.57,1.39,1.39,0,0,0-.24-.47,1.11,1.11,0,0,0-.4-.31,1.22,1.22,0,0,0-.56-.12,1.25,1.25,0,0,0-.59.13,1.23,1.23,0,0,0-.42.33,1.29,1.29,0,0,0-.27.47,1.94,1.94,0,0,0-.13.54Z"></path><path class="cls-6" d="M474,210.26a3.7,3.7,0,0,1,.22-1.3,3,3,0,0,1,.62-1.05,2.75,2.75,0,0,1,1-.7,3.21,3.21,0,0,1,1.3-.25,4.52,4.52,0,0,1,1.68.32l-.31,1.19a3.83,3.83,0,0,0-.57-.18,3,3,0,0,0-.68-.07,1.62,1.62,0,0,0-1.3.53,2.34,2.34,0,0,0-.44,1.51,2.37,2.37,0,0,0,.42,1.48,1.66,1.66,0,0,0,1.42.55,4.51,4.51,0,0,0,.73-.07,3.58,3.58,0,0,0,.62-.18l.21,1.2a3,3,0,0,1-.73.21,4.71,4.71,0,0,1-1,.1,3.54,3.54,0,0,1-1.4-.25,2.57,2.57,0,0,1-1-.68,2.84,2.84,0,0,1-.59-1.05A4.55,4.55,0,0,1,474,210.26Z"></path><path class="cls-6" d="M485.53,210.25a3.82,3.82,0,0,1-.22,1.35,3,3,0,0,1-.61,1.05,2.69,2.69,0,0,1-.95.67,3.1,3.1,0,0,1-1.23.24,3.07,3.07,0,0,1-1.23-.24,2.78,2.78,0,0,1-1-.67,3.19,3.19,0,0,1-.61-1.05,4.08,4.08,0,0,1,0-2.7,3.09,3.09,0,0,1,.62-1,2.88,2.88,0,0,1,.95-.67,3.23,3.23,0,0,1,1.22-.23,3.18,3.18,0,0,1,1.21.23,2.73,2.73,0,0,1,1,.67,3.27,3.27,0,0,1,.62,1A3.82,3.82,0,0,1,485.53,210.25Zm-1.49,0a2.41,2.41,0,0,0-.4-1.48,1.3,1.3,0,0,0-1.12-.55,1.32,1.32,0,0,0-1.13.55,2.48,2.48,0,0,0-.4,1.48,2.57,2.57,0,0,0,.4,1.5,1.32,1.32,0,0,0,1.13.55,1.3,1.3,0,0,0,1.12-.55A2.49,2.49,0,0,0,484,210.25Z"></path><path class="cls-6" d="M490.6,210.09a3.13,3.13,0,0,0-.24-1.42,1,1,0,0,0-.92-.44,3.4,3.4,0,0,0-.53,0l-.43.06v5.06H487v-6.07c.28-.08.64-.15,1.1-.23a9.32,9.32,0,0,1,1.43-.11,2.87,2.87,0,0,1,1.06.17,1.88,1.88,0,0,1,.69.45,2,2,0,0,1,.34-.21,3.79,3.79,0,0,1,.45-.2,4.26,4.26,0,0,1,.54-.15,2.76,2.76,0,0,1,.57-.06,2.93,2.93,0,0,1,1.2.21,1.78,1.78,0,0,1,.75.59,2.33,2.33,0,0,1,.37.91,6.15,6.15,0,0,1,.1,1.17v3.53h-1.45v-3.3a3.13,3.13,0,0,0-.24-1.42,1,1,0,0,0-.92-.44,1.76,1.76,0,0,0-.66.12,1.89,1.89,0,0,0-.47.22,3.2,3.2,0,0,1,.13.63c0,.23,0,.47,0,.72v3.47H490.6Z"></path><path class="cls-6" d="M503.06,210.26a4.25,4.25,0,0,1-.19,1.32,3,3,0,0,1-.53,1,2.31,2.31,0,0,1-.87.67,2.8,2.8,0,0,1-1.18.24,3,3,0,0,1-.82-.1,4.31,4.31,0,0,1-.61-.24v2.43h-1.45v-8.29c.29-.08.66-.15,1.09-.23a8.54,8.54,0,0,1,1.37-.11,3.71,3.71,0,0,1,1.33.23,2.65,2.65,0,0,1,1,.66,2.85,2.85,0,0,1,.64,1A3.88,3.88,0,0,1,503.06,210.26Zm-1.49,0a2.3,2.3,0,0,0-.44-1.51,1.71,1.71,0,0,0-1.41-.54l-.42,0a2.14,2.14,0,0,0-.44.08v3.59a2.44,2.44,0,0,0,.51.24,1.91,1.91,0,0,0,.68.12,1.31,1.31,0,0,0,1.16-.54A2.61,2.61,0,0,0,501.57,210.28Z"></path><path class="cls-6" d="M506.65,207a3.55,3.55,0,0,1,1.21.18,2,2,0,0,1,.79.5,2.07,2.07,0,0,1,.42.79,4.05,4.05,0,0,1,.12,1v3.81c-.22.05-.56.1-1,.17a10.07,10.07,0,0,1-1.53.1,4.67,4.67,0,0,1-1-.1,2.26,2.26,0,0,1-.8-.35,1.7,1.7,0,0,1-.52-.63,2.19,2.19,0,0,1-.18-.94,1.87,1.87,0,0,1,.21-.92,1.72,1.72,0,0,1,.57-.6,2.38,2.38,0,0,1,.83-.34,4.62,4.62,0,0,1,1-.1l.5,0a4.28,4.28,0,0,1,.57.1v-.24a1.86,1.86,0,0,0-.06-.48,1,1,0,0,0-.21-.4.89.89,0,0,0-.4-.27,1.79,1.79,0,0,0-.62-.1,5.25,5.25,0,0,0-.92.08,3.61,3.61,0,0,0-.68.16l-.18-1.17a4.51,4.51,0,0,1,.8-.19A5.8,5.8,0,0,1,506.65,207Zm.12,5.41a5.24,5.24,0,0,0,1-.07v-1.61a3,3,0,0,0-.35-.07,3.75,3.75,0,0,0-.5,0,4,4,0,0,0-.49,0,1.5,1.5,0,0,0-.44.13.86.86,0,0,0-.32.27.78.78,0,0,0-.12.44.77.77,0,0,0,.32.71A1.62,1.62,0,0,0,506.77,212.37Z"></path><path class="cls-6" d="M511,207.32c.28-.08.64-.15,1.09-.23a9.63,9.63,0,0,1,1.49-.11,3.39,3.39,0,0,1,1.28.21,2,2,0,0,1,.82.59,2.27,2.27,0,0,1,.44.91,5.39,5.39,0,0,1,.12,1.17v3.53h-1.45v-3.3a4.33,4.33,0,0,0-.07-.86,1.47,1.47,0,0,0-.21-.57.89.89,0,0,0-.41-.33,1.89,1.89,0,0,0-.63-.1,4,4,0,0,0-.58,0l-.44.06v5.06H511Z"></path><path class="cls-6" d="M522.92,207.12a47.06,47.06,0,0,1-2.25,6.48,7.68,7.68,0,0,1-.49.92,2.74,2.74,0,0,1-.57.64,2,2,0,0,1-.7.36,2.93,2.93,0,0,1-.88.12,3,3,0,0,1-.67-.08,2.17,2.17,0,0,1-.5-.15l.26-1.17a2.23,2.23,0,0,0,.86.17,1.35,1.35,0,0,0,.89-.27,2.27,2.27,0,0,0,.56-.83q-.69-1.32-1.32-2.88a29.86,29.86,0,0,1-1.13-3.31h1.55c.08.33.18.7.29,1.09s.25.79.38,1.19.28.81.44,1.21.3.77.45,1.11c.26-.71.5-1.47.72-2.27s.43-1.58.61-2.33Z"></path></g></svg>